<?xml version="1.0" encoding="UTF-8"?>
<svg version="1.1" xmlns="http://www.w3.org/2000/svg" width="111" height="38">
<path d="M0 0 C4.1792486 1.68948348 6.54961008 4.2369012 9 8 C10.87861257 13.51059686 9.08899572 17.82921851 7 23 C6.67 23.66 6.34 24.32 6 25 C5.95485864 26.85361708 5.96132958 28.70873663 6 30.5625 C6.03770315 32.37460781 6.04653361 34.18809744 6 36 C5 37 5 37 1.91015625 37.1328125 C0.64042969 37.13023438 -0.62929688 37.12765625 -1.9375 37.125 C-3.83822266 37.12886719 -3.83822266 37.12886719 -5.77734375 37.1328125 C-9 37 -9 37 -11 36 C-11 35.01 -11 34.02 -11 33 C-12.1446875 33.1546875 -12.1446875 33.1546875 -13.3125 33.3125 C-16 33 -16 33 -17.75 30.8125 C-18.92728613 28.1636062 -19.59145001 25.85984992 -20 23 C-20.66 23 -21.32 23 -22 23 C-21.45276317 19.62537285 -20.9451 17.91765 -19 15 C-18.566875 13.1128125 -18.566875 13.1128125 -18.125 11.1875 C-17.18970691 7.16425514 -15.55993302 4.27991418 -13 1 C-9.07486948 -0.96256526 -4.28912771 -0.34188699 0 0 Z M-11 7 C-11.96624167 8.67828408 -11.96624167 8.67828408 -12 11 C-8.81738885 15.55664569 -8.81738885 15.55664569 -4 18 C-1.24291412 16.5120439 -1.24291412 16.5120439 1 14 C1.88593998 10.86136296 1.88593998 10.86136296 2 8 C-0.24477329 7.27846573 -1.62491837 6.90320474 -3.9375 7.5 C-6.5437064 8.13180761 -8.42673558 7.64331611 -11 7 Z " fill="#DD4286" transform="translate(24,1)"/>
<path d="M0 0 C0.66 0.66 1.32 1.32 2 2 C4.57061311 2.64767793 4.57061311 2.64767793 7 3 C6.01 3.33 5.02 3.66 4 4 C4.43910079 8.83010873 5.42857993 10.77420123 9 14 C9 14.66 9 15.32 9 16 C10.98 15.67 12.96 15.34 15 15 C13.6875 17.5 13.6875 17.5 12 20 C9 20 9 20 7 19 C7 19.99 7 20.98 7 22 C7.66 22 8.32 22 9 22 C8.42655063 24.86724686 8.1385485 25.8614515 6 28 C5.35232207 30.57061311 5.35232207 30.57061311 5 33 C4.505 31.515 4.505 31.515 4 30 C3.236875 30.103125 2.47375 30.20625 1.6875 30.3125 C-1 30 -1 30 -2.75 27.8125 C-3.92728613 25.1636062 -4.59145001 22.85984992 -5 20 C-5.66 20 -6.32 20 -7 20 C-6.45276317 16.62537285 -5.9451 14.91765 -4 12 C-3.40861188 10.0881968 -3.40861188 10.0881968 -3 8.0625 C-2.31961767 5.13037615 -1.52947435 2.62195603 0 0 Z " fill="#DF337B" transform="translate(9,4)"/>
<path d="M0 0 C0.763125 0.20625 1.52625 0.4125 2.3125 0.625 C2.3125 1.615 2.3125 2.605 2.3125 3.625 C0.6625 3.295 -0.9875 2.965 -2.6875 2.625 C-2.6875 3.285 -2.6875 3.945 -2.6875 4.625 C-1.511875 5.0890625 -1.511875 5.0890625 -0.3125 5.5625 C2.3125 6.625 2.3125 6.625 4.3125 7.625 C4.9725 6.305 5.6325 4.985 6.3125 3.625 C8.6875 3.5 8.6875 3.5 11.3125 3.625 C11.9725 4.285 12.6325 4.945 13.3125 5.625 C13.6425 4.965 13.9725 4.305 14.3125 3.625 C15.3025 3.625 16.2925 3.625 17.3125 3.625 C17.3125 5.935 17.3125 8.245 17.3125 10.625 C18.3025 10.625 19.2925 10.625 20.3125 10.625 C20.3125 8.315 20.3125 6.005 20.3125 3.625 C21.3025 3.625 22.2925 3.625 23.3125 3.625 C23.3125 6.925 23.3125 10.225 23.3125 13.625 C16.6875 13.875 16.6875 13.875 13.3125 11.625 C12.6525 12.285 11.9925 12.945 11.3125 13.625 C7.57953674 14.00786803 6.53623677 13.77415785 3.3125 11.625 C2.6525 12.285 1.9925 12.945 1.3125 13.625 C-1.8125 13.75 -1.8125 13.75 -4.6875 13.625 C-5.0175 12.305 -5.3475 10.985 -5.6875 9.625 C-2.7175 10.12 -2.7175 10.12 0.3125 10.625 C0.3125 9.965 0.3125 9.305 0.3125 8.625 C-1.6675 7.965 -3.6475 7.305 -5.6875 6.625 C-5.875 4.25 -5.875 4.25 -5.6875 1.625 C-2.6875 -0.375 -2.6875 -0.375 0 0 Z M7.3125 6.625 C7.3125 7.945 7.3125 9.265 7.3125 10.625 C8.6325 10.295 9.9525 9.965 11.3125 9.625 C10.9825 8.635 10.6525 7.645 10.3125 6.625 C9.3225 6.625 8.3325 6.625 7.3125 6.625 Z " fill="#05030A" transform="translate(42.6875,11.375)"/>
<path d="M0 0 C1.9375 0.375 1.9375 0.375 4 1 C4.33 1.66 4.66 2.32 5 3 C5.66 2.01 6.32 1.02 7 0 C9.56640625 -0.328125 9.56640625 -0.328125 12.5625 -0.25 C14.04943359 -0.22679687 14.04943359 -0.22679687 15.56640625 -0.203125 C18 0 18 0 19 1 C19.07179964 2.51928038 19.08392007 4.04167482 19.0625 5.5625 C19.05347656 6.38878906 19.04445313 7.21507812 19.03515625 8.06640625 C19.02355469 8.70449219 19.01195313 9.34257812 19 10 C18.01 9.67 17.02 9.34 16 9 C16 7.02 16 5.04 16 3 C15.01 3 14.02 3 13 3 C13 5.31 13 7.62 13 10 C12.34 10 11.68 10 11 10 C10.34 8.35 9.68 6.7 9 5 C7.68 7.64 6.36 10.28 5 13 C4.01 12.67 3.02 12.34 2 12 C2.226875 11.46375 2.45375 10.9275 2.6875 10.375 C3.13846479 6.94766763 1.61626617 4.97392976 0 2 C0 1.34 0 0.68 0 0 Z " fill="#03010A" transform="translate(80,15)"/>
<path d="M0 0 C0.928125 0.20625 1.85625 0.4125 2.8125 0.625 C2.8125 1.615 2.8125 2.605 2.8125 3.625 C1.1625 3.295 -0.4875 2.965 -2.1875 2.625 C-2.1875 3.285 -2.1875 3.945 -2.1875 4.625 C-1.383125 4.8725 -0.57875 5.12 0.25 5.375 C2.8125 6.625 2.8125 6.625 3.8125 8.5625 C3.8125 10.625 3.8125 10.625 2.8125 12.4375 C-0.28228096 14.2750262 -2.78365163 13.3314591 -6.1875 12.625 C-5.8575 11.635 -5.5275 10.645 -5.1875 9.625 C-3.5375 9.955 -1.8875 10.285 -0.1875 10.625 C-0.1875 9.965 -0.1875 9.305 -0.1875 8.625 C-0.991875 8.398125 -1.79625 8.17125 -2.625 7.9375 C-3.470625 7.504375 -4.31625 7.07125 -5.1875 6.625 C-6 4 -6 4 -6.1875 1.625 C-3.1875 -0.375 -3.1875 -0.375 0 0 Z " fill="#0C0721" transform="translate(77.1875,11.375)"/>
<path d="M0 0 C2.97 0.33 5.94 0.66 9 1 C9 1.66 9 2.32 9 3 C8.34 3 7.68 3 7 3 C8.89755144 5.34973818 8.89755144 5.34973818 12.125 5.125 C13.548125 5.063125 13.548125 5.063125 15 5 C15.33 5.66 15.66 6.32 16 7 C15.2575 6.979375 14.515 6.95875 13.75 6.9375 C11.06173778 6.88266896 11.06173778 6.88266896 8.8125 7.625 C8.214375 7.74875 7.61625 7.8725 7 8 C6.34 7.34 5.68 6.68 5 6 C3.01643517 5.28591666 1.01684563 4.61382258 -1 4 C-0.67 2.68 -0.34 1.36 0 0 Z " fill="#E14D8E" transform="translate(11,2)"/>
<path d="M0 0 C1.79583216 2.64092965 2.00373802 3.95234022 1.75 7.1875 C0.90622697 11.47667956 -0.00580395 15.74329652 -1 20 C-1.66 19.34 -2.32 18.68 -3 18 C-2.64626043 14.0204298 -1.60725491 10.64311114 0 7 C-1.65 7.66 -3.3 8.32 -5 9 C-4.67 8.01 -4.34 7.02 -4 6 C-4.66 5.34 -5.32 4.68 -6 4 C-4.68 3.67 -3.36 3.34 -2 3 C-2 2.34 -2 1.68 -2 1 C-1.34 0.67 -0.68 0.34 0 0 Z " fill="#E24D8A" transform="translate(30,13)"/>
<path d="M0 0 C0.78375 0.04125 1.5675 0.0825 2.375 0.125 C2.705 1.115 3.035 2.105 3.375 3.125 C1.725 3.125 0.075 3.125 -1.625 3.125 C-1.625 4.445 -1.625 5.765 -1.625 7.125 C0.025 7.125 1.675 7.125 3.375 7.125 C3.045 8.115 2.715 9.105 2.375 10.125 C-3.5 9.25 -3.5 9.25 -4.625 8.125 C-4.8125 5.1875 -4.8125 5.1875 -4.625 2.125 C-2.625 0.125 -2.625 0.125 0 0 Z " fill="#020105" transform="translate(104.625,14.875)"/>
<path d="M0 0 C0.66 0.66 1.32 1.32 2 2 C4.57061311 2.64767793 4.57061311 2.64767793 7 3 C6.01 3.33 5.02 3.66 4 4 C4 4.66 4 5.32 4 6 C2.02 6.33 0.04 6.66 -2 7 C-1.79375 7.928125 -1.5875 8.85625 -1.375 9.8125 C-1 13 -1 13 -3 16 C-3.66 15.34 -4.32 14.68 -5 14 C-4.54636829 12.41531323 -4.08688548 10.83230076 -3.625 9.25 C-3.36976562 8.36828125 -3.11453125 7.4865625 -2.8515625 6.578125 C-2.0790066 4.23919428 -1.16374324 2.16557438 0 0 Z " fill="#C93B75" transform="translate(9,4)"/>
<path d="M0 0 C11.70615034 -0.55353075 11.70615034 -0.55353075 16 3 C13.39417629 3.93065133 12.35801776 4.14917407 9.75 3.0625 C9.1725 2.711875 8.595 2.36125 8 2 C7.67 3.65 7.34 5.3 7 7 C6.34 6.67 5.68 6.34 5 6 C5 5.34 5 4.68 5 4 C5.66 4 6.32 4 7 4 C7 3.34 7 2.68 7 2 C5.02 2 3.04 2 1 2 C0.67 1.34 0.34 0.68 0 0 Z " fill="#CD487B" transform="translate(13,1)"/>
<path d="M0 0 C0.99 0 1.98 0 3 0 C3 4.29 3 8.58 3 13 C2.01 13 1.02 13 0 13 C0 8.71 0 4.42 0 0 Z " fill="#090615" transform="translate(67,11)"/>
<path d="M0 0 C2.6444211 2.21790157 3.88097442 3.56967674 4.8125 6.9375 C4.99248942 9.87732724 4.75033374 12.16540585 4 15 C2.25372522 12.38058783 1.61277612 10.96175123 1 8 C0.34 8 -0.32 8 -1 8 C-0.67 5.36 -0.34 2.72 0 0 Z " fill="#CB4476" transform="translate(29,5)"/>
<path d="M0 0 C1.99954746 -0.04254356 4.00041636 -0.04080783 6 0 C7 1 7 1 7.09765625 3.06640625 C7.08605469 3.89011719 7.07445313 4.71382812 7.0625 5.5625 C7.05347656 6.38878906 7.04445313 7.21507812 7.03515625 8.06640625 C7.01775391 9.02353516 7.01775391 9.02353516 7 10 C6.01 9.67 5.02 9.34 4 9 C4 7.02 4 5.04 4 3 C2.68 2.67 1.36 2.34 0 2 C0 1.34 0 0.68 0 0 Z " fill="#010104" transform="translate(92,15)"/>
<path d="M0 0 C1.875 0.125 1.875 0.125 4 1 C5.69726294 4.73397847 6.23990744 7.92157346 6 12 C4.68 12.33 3.36 12.66 2 13 C2.3403125 11.948125 2.3403125 11.948125 2.6875 10.875 C3.0960641 7.1162103 1.80535343 5.24963618 0 2 C0 1.34 0 0.68 0 0 Z " fill="#0B071B" transform="translate(80,15)"/>
<path d="M0 0 C2.66666667 0.66666667 5.33333333 1.33333333 8 2 C7.67 4.64 7.34 7.28 7 10 C6.67 10 6.34 10 6 10 C5.67 8.35 5.34 6.7 5 5 C3.35 4.67 1.7 4.34 0 4 C0 2.68 0 1.36 0 0 Z " fill="#E73B81" transform="translate(21,3)"/>
<path d="M0 0 C0.33 0.99 0.66 1.98 1 3 C0.525625 3.391875 0.05125 3.78375 -0.4375 4.1875 C-2.35179633 6.40808374 -2.61266988 8.13375709 -3 11 C-3.33 10.01 -3.66 9.02 -4 8 C-5.65 8 -7.3 8 -9 8 C-9 6.68 -9 5.36 -9 4 C-8.2575 4.0825 -7.515 4.165 -6.75 4.25 C-3.21842973 3.92894816 -2.23369636 2.64734383 0 0 Z " fill="#D12A6B" transform="translate(17,26)"/>
<path d="M0 0 C0.103125 0.639375 0.20625 1.27875 0.3125 1.9375 C0.6528125 2.9584375 0.6528125 2.9584375 1 4 C1.99 4.33 2.98 4.66 4 5 C3.34 5 2.68 5 2 5 C2 5.66 2 6.32 2 7 C-4.625 11 -4.625 11 -8 11 C-7 9 -7 9 -4.5625 7.75 C-1.33166369 5.5435752 -0.9099894 3.72268389 0 0 Z " fill="#D02C63" transform="translate(26,9)"/>
<path d="M0 0 C0 0.99 0 1.98 0 3 C-1.65 2.67 -3.3 2.34 -5 2 C-5.33 2.66 -5.66 3.32 -6 4 C-6 3.34 -6 2.68 -6 2 C-6.66 2 -7.32 2 -8 2 C-8.33 2.99 -8.66 3.98 -9 5 C-8.625 2.5625 -8.625 2.5625 -8 0 C-5.13822943 -1.43088528 -3.06624227 -0.59991697 0 0 Z " fill="#04020D" transform="translate(80,12)"/>
<path d="M0 0 C2.38672669 2.96283313 4.7353371 5.94270509 7 9 C5.35 8.67 3.7 8.34 2 8 C2 7.34 2 6.68 2 6 C1.01 5.67 0.02 5.34 -1 5 C-0.67 3.35 -0.34 1.7 0 0 Z " fill="#D94C83" transform="translate(11,10)"/>
<path d="M0 0 C1.98 0 3.96 0 6 0 C6 1.32 6 2.64 6 4 C3.69 3.67 1.38 3.34 -1 3 C-0.67 2.01 -0.34 1.02 0 0 Z " fill="#060312" transform="translate(72,21)"/>
<path d="M0 0 C1.485 0.99 1.485 0.99 3 2 C2.34 3.98 1.68 5.96 1 8 C0.34 8 -0.32 8 -1 8 C-0.67 5.36 -0.34 2.72 0 0 Z " fill="#D93C77" transform="translate(29,5)"/>
<path d="M0 0 C2.97 0 5.94 0 9 0 C9.33 0.66 9.66 1.32 10 2 C9.2575 1.979375 8.515 1.95875 7.75 1.9375 C5.29537721 1.99328688 3.33890739 2.3069904 1 3 C0.67 2.01 0.34 1.02 0 0 Z " fill="#E05A86" transform="translate(17,7)"/>
</svg>
